<svg xmlns="http://www.w3.org/2000/svg" width="860" height="520" viewBox="0 0 860 520" font-family="Helvetica, Arial, sans-serif">
<rect width="860" height="520" fill="#ffffff"/>
<text x="20" y="28" font-size="15" fill="#111827" text-anchor="start" font-weight="bold">Route A8 &#183; flush magnetic lid</text><text x="20" y="46" font-size="10.5" fill="#4b5563" text-anchor="start" font-weight="normal">8 mm walls &#183; round pockets &#183; 1.6&#215; the impact strength</text><line x1="20" y1="58" x2="840" y2="58" stroke="#e5e7eb"/>
<polygon points="363.76,358.00 271.96,411.00 271.96,403.00 363.76,350.00" fill="#cfd8e8" stroke="#111827" stroke-width="0.8" stroke-linejoin="round"/><polygon points="128.20,328.00 271.96,411.00 271.96,403.00 128.20,320.00" fill="#bcc7db" stroke="#111827" stroke-width="0.8" stroke-linejoin="round"/><polygon points="220.00,267.00 363.76,350.00 271.96,403.00 128.20,320.00" fill="#eef2f9" stroke="#111827" stroke-width="0.8" stroke-linejoin="round"/><polygon points="278.89,399.00 271.96,403.00 271.96,268.00 278.89,264.00" fill="#e3e9f4" stroke="#111827" stroke-width="0.8" stroke-linejoin="round"/><polygon points="128.20,320.00 271.96,403.00 271.96,268.00 128.20,185.00" fill="#d2dbec" stroke="#111827" stroke-width="0.8" stroke-linejoin="round"/><polygon points="135.13,181.00 278.89,264.00 271.96,268.00 128.20,185.00" fill="#f7f9fd" stroke="#111827" stroke-width="0.8" stroke-linejoin="round"/><polygon points="363.76,350.00 356.83,354.00 356.83,219.00 363.76,215.00" fill="#e3e9f4" stroke="#111827" stroke-width="0.8" stroke-linejoin="round"/><polygon points="213.07,271.00 356.83,354.00 356.83,219.00 213.07,136.00" fill="#d2dbec" stroke="#111827" stroke-width="0.8" stroke-linejoin="round"/><polygon points="220.00,132.00 363.76,215.00 356.83,219.00 213.07,136.00" fill="#f7f9fd" stroke="#111827" stroke-width="0.8" stroke-linejoin="round"/><polygon points="226.93,271.00 135.13,324.00 135.13,189.00 226.93,136.00" fill="#e3e9f4" stroke="#111827" stroke-width="0.8" stroke-linejoin="round"/><polygon points="128.20,320.00 135.13,324.00 135.13,189.00 128.20,185.00" fill="#d2dbec" stroke="#111827" stroke-width="0.8" stroke-linejoin="round"/><polygon points="220.00,132.00 226.93,136.00 135.13,189.00 128.20,185.00" fill="#f7f9fd" stroke="#111827" stroke-width="0.8" stroke-linejoin="round"/><polygon points="363.76,350.00 271.96,403.00 271.96,268.00 363.76,215.00" fill="#e3e9f4" stroke="#111827" stroke-width="0.8" stroke-linejoin="round"/><polygon points="265.03,399.00 271.96,403.00 271.96,268.00 265.03,264.00" fill="#d2dbec" stroke="#111827" stroke-width="0.8" stroke-linejoin="round"/><polygon points="356.83,211.00 363.76,215.00 271.96,268.00 265.03,264.00" fill="#f7f9fd" stroke="#111827" stroke-width="0.8" stroke-linejoin="round"/><line x1="273.56" y1="403.00" x2="273.56" y2="388.00" stroke="#1d4ed8" stroke-width="1.5" stroke-linecap="round"/><line x1="270.36" y1="388.00" x2="270.36" y2="373.00" stroke="#1d4ed8" stroke-width="1.5" stroke-linecap="round"/><line x1="273.56" y1="373.00" x2="273.56" y2="358.00" stroke="#1d4ed8" stroke-width="1.5" stroke-linecap="round"/><line x1="270.36" y1="358.00" x2="270.36" y2="343.00" stroke="#1d4ed8" stroke-width="1.5" stroke-linecap="round"/><line x1="273.56" y1="343.00" x2="273.56" y2="328.00" stroke="#1d4ed8" stroke-width="1.5" stroke-linecap="round"/><line x1="270.36" y1="328.00" x2="270.36" y2="313.00" stroke="#1d4ed8" stroke-width="1.5" stroke-linecap="round"/><line x1="273.56" y1="313.00" x2="273.56" y2="298.00" stroke="#1d4ed8" stroke-width="1.5" stroke-linecap="round"/><line x1="270.36" y1="298.00" x2="270.36" y2="283.00" stroke="#1d4ed8" stroke-width="1.5" stroke-linecap="round"/><line x1="273.56" y1="283.00" x2="273.56" y2="268.00" stroke="#1d4ed8" stroke-width="1.5" stroke-linecap="round"/><line x1="365.36" y1="350.00" x2="365.36" y2="335.00" stroke="#1d4ed8" stroke-width="1.5" stroke-linecap="round"/><line x1="362.16" y1="335.00" x2="362.16" y2="320.00" stroke="#1d4ed8" stroke-width="1.5" stroke-linecap="round"/><line x1="365.36" y1="320.00" x2="365.36" y2="305.00" stroke="#1d4ed8" stroke-width="1.5" stroke-linecap="round"/><line x1="362.16" y1="305.00" x2="362.16" y2="290.00" stroke="#1d4ed8" stroke-width="1.5" stroke-linecap="round"/><line x1="365.36" y1="290.00" x2="365.36" y2="275.00" stroke="#1d4ed8" stroke-width="1.5" stroke-linecap="round"/><line x1="362.16" y1="275.00" x2="362.16" y2="260.00" stroke="#1d4ed8" stroke-width="1.5" stroke-linecap="round"/><line x1="365.36" y1="260.00" x2="365.36" y2="245.00" stroke="#1d4ed8" stroke-width="1.5" stroke-linecap="round"/><line x1="362.16" y1="245.00" x2="362.16" y2="230.00" stroke="#1d4ed8" stroke-width="1.5" stroke-linecap="round"/><line x1="365.36" y1="230.00" x2="365.36" y2="215.00" stroke="#1d4ed8" stroke-width="1.5" stroke-linecap="round"/><line x1="129.80" y1="320.00" x2="129.80" y2="305.00" stroke="#1d4ed8" stroke-width="1.5" stroke-linecap="round"/><line x1="126.60" y1="305.00" x2="126.60" y2="290.00" stroke="#1d4ed8" stroke-width="1.5" stroke-linecap="round"/><line x1="129.80" y1="290.00" x2="129.80" y2="275.00" stroke="#1d4ed8" stroke-width="1.5" stroke-linecap="round"/><line x1="126.60" y1="275.00" x2="126.60" y2="260.00" stroke="#1d4ed8" stroke-width="1.5" stroke-linecap="round"/><line x1="129.80" y1="260.00" x2="129.80" y2="245.00" stroke="#1d4ed8" stroke-width="1.5" stroke-linecap="round"/><line x1="126.60" y1="245.00" x2="126.60" y2="230.00" stroke="#1d4ed8" stroke-width="1.5" stroke-linecap="round"/><line x1="129.80" y1="230.00" x2="129.80" y2="215.00" stroke="#1d4ed8" stroke-width="1.5" stroke-linecap="round"/><line x1="126.60" y1="215.00" x2="126.60" y2="200.00" stroke="#1d4ed8" stroke-width="1.5" stroke-linecap="round"/><line x1="129.80" y1="200.00" x2="129.80" y2="185.00" stroke="#1d4ed8" stroke-width="1.5" stroke-linecap="round"/><polygon points="363.76,215.00 271.96,268.00 271.96,260.00 363.76,207.00" fill="#dde5f2" stroke="#111827" stroke-width="0.8" stroke-linejoin="round"/><polygon points="128.20,185.00 271.96,268.00 271.96,260.00 128.20,177.00" fill="#cbd6ea" stroke="#111827" stroke-width="0.8" stroke-linejoin="round"/><polygon points="220.00,124.00 363.76,207.00 271.96,260.00 128.20,177.00" fill="#f7f9fd" stroke="#111827" stroke-width="0.8" stroke-linejoin="round"/><line x1="271.96" y1="268.00" x2="363.76" y2="215.00" stroke="#e5e7eb" stroke-width="1" stroke-linecap="round"/><text x="325.8608706276416" y="247.5" font-size="9.5" fill="#b91c1c" text-anchor="start" font-weight="normal">lid magnets</text><text x="325.8608706276416" y="378.5" font-size="9.5" fill="#b91c1c" text-anchor="start" font-weight="normal">base magnets</text><text x="580" y="90" font-size="10" fill="#4b5563" text-anchor="start" font-weight="bold">mm</text><text x="700" y="90" font-size="10" fill="#4b5563" text-anchor="start" font-weight="bold">cm</text><text x="460" y="112" font-size="10" fill="#111827" text-anchor="start" font-weight="normal">Outside</text><text x="580" y="112" font-size="10" fill="#4b5563" text-anchor="start" font-weight="normal">166 &#215; 106 &#215; 151 mm</text><text x="700" y="112" font-size="10" fill="#4b5563" text-anchor="start" font-weight="normal">16.6 &#215; 10.6 &#215; 15.1 cm</text><line x1="460" y1="118" x2="840" y2="118" stroke="#e5e7eb"/><text x="460" y="138" font-size="10" fill="#111827" text-anchor="start" font-weight="normal">Interior</text><text x="580" y="138" font-size="10" fill="#4b5563" text-anchor="start" font-weight="normal">150 &#215; 90 &#215; 135 mm</text><text x="700" y="138" font-size="10" fill="#4b5563" text-anchor="start" font-weight="normal">15.0 &#215; 9.0 &#215; 13.5 cm</text><line x1="460" y1="144" x2="840" y2="144" stroke="#e5e7eb"/><text x="460" y="164" font-size="10" fill="#111827" text-anchor="start" font-weight="normal">Wall thickness</text><text x="580" y="164" font-size="10" fill="#4b5563" text-anchor="start" font-weight="normal">8 mm</text><text x="700" y="164" font-size="10" fill="#4b5563" text-anchor="start" font-weight="normal">0.8 cm</text><line x1="460" y1="170" x2="840" y2="170" stroke="#e5e7eb"/><text x="460" y="190" font-size="10" fill="#111827" text-anchor="start" font-weight="normal">Front / back wall &#215;2</text><text x="580" y="190" font-size="10" fill="#4b5563" text-anchor="start" font-weight="normal">166 &#215; 135 mm</text><text x="700" y="190" font-size="10" fill="#4b5563" text-anchor="start" font-weight="normal">16.6 &#215; 13.5 cm</text><line x1="460" y1="196" x2="840" y2="196" stroke="#e5e7eb"/><text x="460" y="216" font-size="10" fill="#111827" text-anchor="start" font-weight="normal">Left / right wall &#215;2</text><text x="580" y="216" font-size="10" fill="#4b5563" text-anchor="start" font-weight="normal">106 &#215; 135 mm</text><text x="700" y="216" font-size="10" fill="#4b5563" text-anchor="start" font-weight="normal">10.6 &#215; 13.5 cm</text><line x1="460" y1="222" x2="840" y2="222" stroke="#e5e7eb"/><text x="460" y="242" font-size="10" fill="#111827" text-anchor="start" font-weight="normal">Lid plate</text><text x="580" y="242" font-size="10" fill="#4b5563" text-anchor="start" font-weight="normal">166 &#215; 106 &#215; 8 mm</text><text x="700" y="242" font-size="10" fill="#4b5563" text-anchor="start" font-weight="normal">16.6 &#215; 10.6 &#215; 0.8 cm</text><line x1="460" y1="248" x2="840" y2="248" stroke="#e5e7eb"/><text x="460" y="268" font-size="10" fill="#111827" text-anchor="start" font-weight="normal">Base plate</text><text x="580" y="268" font-size="10" fill="#4b5563" text-anchor="start" font-weight="normal">166 &#215; 106 &#215; 8 mm</text><text x="700" y="268" font-size="10" fill="#4b5563" text-anchor="start" font-weight="normal">16.6 &#215; 10.6 &#215; 0.8 cm</text><line x1="460" y1="274" x2="840" y2="274" stroke="#e5e7eb"/><text x="460" y="308" font-size="10" fill="#b91c1c" text-anchor="start" font-weight="bold">MAGNETS</text><text x="460" y="324" font-size="10" fill="#4b5563" text-anchor="start" font-weight="normal">4 mm dia &#215; 2 mm discs in round pockets,</text><text x="460" y="338" font-size="10" fill="#4b5563" text-anchor="start" font-weight="normal">2 mm of acrylic left all round.</text><text x="460" y="356" font-size="10" fill="#4b5563" text-anchor="start" font-weight="normal">16 total: 4 pairs lid + 4 pairs base</text><text x="460" y="372" font-size="10" fill="#4b5563" text-anchor="start" font-weight="normal">Finger joint: 7.5 mm fingers, 15 mm pitch, 9 up</text><text x="460" y="388" font-size="10" fill="#15803d" text-anchor="start" font-weight="normal">Radius every internal corner R2 minimum</text><text x="20" y="506" font-size="9.5" fill="#9aa0ae" text-anchor="start" font-weight="normal">Assembled size 16.6 &#215; 10.6 &#215; 15.1 cm (166 &#215; 106 &#215; 151 mm). Flush on all six faces - a true rectangular prism.</text>
</svg>
