<svg xmlns="http://www.w3.org/2000/svg" width="400" height="400" viewBox="0 0 400 400" font-family="Helvetica, Arial, sans-serif">
<rect width="400" height="400" fill="#ffffff"/>
<text x="20" y="28" font-size="15" fill="#111827" text-anchor="start" font-weight="bold">STEP 6 &#183; Slide into a rigid tube</text><text x="20" y="46" font-size="10.5" fill="#4b5563" text-anchor="start" font-weight="normal">Three moves total. Self-locking once the fourth wall is home.</text><line x1="20" y1="58" x2="380" y2="58" stroke="#e5e7eb"/>
<polygon points="219.11,303.20 213.57,306.40 213.57,198.40 219.11,195.20" fill="#e3e9f4" stroke="#111827" stroke-width="0.8" stroke-linejoin="round"/><polygon points="98.56,240.00 213.57,306.40 213.57,198.40 98.56,132.00" fill="#d2dbec" stroke="#111827" stroke-width="0.8" stroke-linejoin="round"/><polygon points="104.10,128.80 219.11,195.20 213.57,198.40 98.56,132.00" fill="#f7f9fd" stroke="#111827" stroke-width="0.8" stroke-linejoin="round"/><polygon points="287.01,264.00 281.47,267.20 281.47,159.20 287.01,156.00" fill="#e3e9f4" stroke="#111827" stroke-width="0.8" stroke-linejoin="round"/><polygon points="166.46,200.80 281.47,267.20 281.47,159.20 166.46,92.80" fill="#d2dbec" stroke="#111827" stroke-width="0.8" stroke-linejoin="round"/><polygon points="172.00,89.60 287.01,156.00 281.47,159.20 166.46,92.80" fill="#f7f9fd" stroke="#111827" stroke-width="0.8" stroke-linejoin="round"/><polygon points="177.54,200.80 104.10,243.20 104.10,135.20 177.54,92.80" fill="#e3e9f4" stroke="#111827" stroke-width="0.8" stroke-linejoin="round"/><polygon points="98.56,240.00 104.10,243.20 104.10,135.20 98.56,132.00" fill="#d2dbec" stroke="#111827" stroke-width="0.8" stroke-linejoin="round"/><polygon points="172.00,89.60 177.54,92.80 104.10,135.20 98.56,132.00" fill="#f7f9fd" stroke="#111827" stroke-width="0.8" stroke-linejoin="round"/><polygon points="287.01,264.00 213.57,306.40 213.57,198.40 287.01,156.00" fill="#e3e9f4" stroke="#111827" stroke-width="0.8" stroke-linejoin="round"/><polygon points="208.03,303.20 213.57,306.40 213.57,198.40 208.03,195.20" fill="#d2dbec" stroke="#111827" stroke-width="0.8" stroke-linejoin="round"/><polygon points="281.47,152.80 287.01,156.00 213.57,198.40 208.03,195.20" fill="#f7f9fd" stroke="#111827" stroke-width="0.8" stroke-linejoin="round"/><line x1="215.17" y1="306.40" x2="215.17" y2="294.40" stroke="#1d4ed8" stroke-width="1.5" stroke-linecap="round"/><line x1="211.97" y1="294.40" x2="211.97" y2="282.40" stroke="#1d4ed8" stroke-width="1.5" stroke-linecap="round"/><line x1="215.17" y1="282.40" x2="215.17" y2="270.40" stroke="#1d4ed8" stroke-width="1.5" stroke-linecap="round"/><line x1="211.97" y1="270.40" x2="211.97" y2="258.40" stroke="#1d4ed8" stroke-width="1.5" stroke-linecap="round"/><line x1="215.17" y1="258.40" x2="215.17" y2="246.40" stroke="#1d4ed8" stroke-width="1.5" stroke-linecap="round"/><line x1="211.97" y1="246.40" x2="211.97" y2="234.40" stroke="#1d4ed8" stroke-width="1.5" stroke-linecap="round"/><line x1="215.17" y1="234.40" x2="215.17" y2="222.40" stroke="#1d4ed8" stroke-width="1.5" stroke-linecap="round"/><line x1="211.97" y1="222.40" x2="211.97" y2="210.40" stroke="#1d4ed8" stroke-width="1.5" stroke-linecap="round"/><line x1="215.17" y1="210.40" x2="215.17" y2="198.40" stroke="#1d4ed8" stroke-width="1.5" stroke-linecap="round"/><line x1="288.61" y1="264.00" x2="288.61" y2="252.00" stroke="#1d4ed8" stroke-width="1.5" stroke-linecap="round"/><line x1="285.41" y1="252.00" x2="285.41" y2="240.00" stroke="#1d4ed8" stroke-width="1.5" stroke-linecap="round"/><line x1="288.61" y1="240.00" x2="288.61" y2="228.00" stroke="#1d4ed8" stroke-width="1.5" stroke-linecap="round"/><line x1="285.41" y1="228.00" x2="285.41" y2="216.00" stroke="#1d4ed8" stroke-width="1.5" stroke-linecap="round"/><line x1="288.61" y1="216.00" x2="288.61" y2="204.00" stroke="#1d4ed8" stroke-width="1.5" stroke-linecap="round"/><line x1="285.41" y1="204.00" x2="285.41" y2="192.00" stroke="#1d4ed8" stroke-width="1.5" stroke-linecap="round"/><line x1="288.61" y1="192.00" x2="288.61" y2="180.00" stroke="#1d4ed8" stroke-width="1.5" stroke-linecap="round"/><line x1="285.41" y1="180.00" x2="285.41" y2="168.00" stroke="#1d4ed8" stroke-width="1.5" stroke-linecap="round"/><line x1="288.61" y1="168.00" x2="288.61" y2="156.00" stroke="#1d4ed8" stroke-width="1.5" stroke-linecap="round"/><line x1="100.16" y1="240.00" x2="100.16" y2="228.00" stroke="#1d4ed8" stroke-width="1.5" stroke-linecap="round"/><line x1="96.96" y1="228.00" x2="96.96" y2="216.00" stroke="#1d4ed8" stroke-width="1.5" stroke-linecap="round"/><line x1="100.16" y1="216.00" x2="100.16" y2="204.00" stroke="#1d4ed8" stroke-width="1.5" stroke-linecap="round"/><line x1="96.96" y1="204.00" x2="96.96" y2="192.00" stroke="#1d4ed8" stroke-width="1.5" stroke-linecap="round"/><line x1="100.16" y1="192.00" x2="100.16" y2="180.00" stroke="#1d4ed8" stroke-width="1.5" stroke-linecap="round"/><line x1="96.96" y1="180.00" x2="96.96" y2="168.00" stroke="#1d4ed8" stroke-width="1.5" stroke-linecap="round"/><line x1="100.16" y1="168.00" x2="100.16" y2="156.00" stroke="#1d4ed8" stroke-width="1.5" stroke-linecap="round"/><line x1="96.96" y1="156.00" x2="96.96" y2="144.00" stroke="#1d4ed8" stroke-width="1.5" stroke-linecap="round"/><line x1="100.16" y1="144.00" x2="100.16" y2="132.00" stroke="#1d4ed8" stroke-width="1.5" stroke-linecap="round"/><line x1="282.16" y1="247.08" x2="260.51" y2="234.58" stroke="#1d4ed8" stroke-width="1.6"/><polygon points="254.45,231.08 262.21,231.64 258.81,237.52" fill="#1d4ed8"/><text x="24" y="326" font-size="9.5" fill="#4b5563" text-anchor="start" font-weight="normal">Slide the two halves together in &#8722;X. Both</text><text x="24" y="342" font-size="9.5" fill="#4b5563" text-anchor="start" font-weight="normal">remaining corners mesh at the same moment.</text><text x="24" y="360" font-size="9.5" fill="#15803d" text-anchor="start" font-weight="normal">The tube is now rigid - a finger joint cannot</text><text x="24" y="376" font-size="9.5" fill="#15803d" text-anchor="start" font-weight="normal">splay, shear or lift. It needs no base.</text><text x="20" y="386" font-size="9.5" fill="#9aa0ae" text-anchor="start" font-weight="normal">Check both diagonals are equal before you go on.</text>
</svg>
