<svg xmlns="http://www.w3.org/2000/svg" width="400" height="400" viewBox="0 0 400 400" font-family="Helvetica, Arial, sans-serif">
<rect width="400" height="400" fill="#ffffff"/>
<text x="20" y="28" font-size="15" fill="#111827" text-anchor="start" font-weight="bold">STEP 5 &#183; Base down, side walls on</text><text x="20" y="46" font-size="10.5" fill="#4b5563" text-anchor="start" font-weight="normal">The base is not magnetic. It is keyed, and the walls lock it.</text><line x1="20" y1="58" x2="380" y2="58" stroke="#e5e7eb"/>
<polygon points="294.88,242.78 234.29,277.76 234.29,272.48 294.88,237.50" fill="#cfd8e8" stroke="#111827" stroke-width="0.8" stroke-linejoin="round"/><polygon points="139.41,222.98 234.29,277.76 234.29,272.48 139.41,217.70" fill="#bcc7db" stroke="#111827" stroke-width="0.8" stroke-linejoin="round"/><polygon points="200.00,182.72 294.88,237.50 234.29,272.48 139.41,217.70" fill="#eef2f9" stroke="#111827" stroke-width="0.8" stroke-linejoin="round"/><circle cx="200.0" cy="182.5" r="5" fill="none" stroke="#b91c1c" stroke-width="1.1"/><circle cx="294.9" cy="237.2" r="5" fill="none" stroke="#b91c1c" stroke-width="1.1"/><circle cx="139.4" cy="217.4" r="5" fill="none" stroke="#b91c1c" stroke-width="1.1"/><circle cx="234.3" cy="272.2" r="5" fill="none" stroke="#b91c1c" stroke-width="1.1"/><rect x="219.3" y="195.6" width="10" height="7" fill="none" stroke="#b45309" stroke-width="1.1"/><rect x="163.3" y="228.0" width="10" height="7" fill="none" stroke="#b45309" stroke-width="1.1"/><rect x="261.0" y="219.7" width="10" height="7" fill="none" stroke="#b45309" stroke-width="1.1"/><rect x="205.0" y="252.1" width="10" height="7" fill="none" stroke="#b45309" stroke-width="1.1"/><polygon points="204.57,165.56 143.99,200.54 143.99,111.44 204.57,76.46" fill="#e3e9f4" stroke="#111827" stroke-width="0.8" stroke-linejoin="round"/><polygon points="139.41,197.90 143.99,200.54 143.99,111.44 139.41,108.80" fill="#d2dbec" stroke="#111827" stroke-width="0.8" stroke-linejoin="round"/><polygon points="200.00,73.82 204.57,76.46 143.99,111.44 139.41,108.80" fill="#f7f9fd" stroke="#111827" stroke-width="0.8" stroke-linejoin="round"/><polygon points="294.88,217.70 234.29,252.68 234.29,163.58 294.88,128.60" fill="#e3e9f4" stroke="#111827" stroke-width="0.8" stroke-linejoin="round"/><polygon points="229.72,250.04 234.29,252.68 234.29,163.58 229.72,160.94" fill="#d2dbec" stroke="#111827" stroke-width="0.8" stroke-linejoin="round"/><polygon points="290.31,125.96 294.88,128.60 234.29,163.58 229.72,160.94" fill="#f7f9fd" stroke="#111827" stroke-width="0.8" stroke-linejoin="round"/><text x="24" y="300" font-size="9.5" fill="#4b5563" text-anchor="start" font-weight="normal">Base plate flat on the bench. Four corner notches (red)</text><text x="24" y="316" font-size="9.5" fill="#4b5563" text-anchor="start" font-weight="normal">and four keyhole slots (amber). Then the two side walls</text><text x="24" y="332" font-size="9.5" fill="#4b5563" text-anchor="start" font-weight="normal">drop onto it, inside the notches.</text><text x="24" y="350" font-size="9.5" fill="#15803d" text-anchor="start" font-weight="normal">The base cannot move sideways: the notches lock it.</text><text x="20" y="386" font-size="9.5" fill="#9aa0ae" text-anchor="start" font-weight="normal">Cut the keyhole slots in the same laser pass as everything else.</text>
</svg>
