<svg xmlns="http://www.w3.org/2000/svg" width="400" height="400" viewBox="0 0 400 400" font-family="Helvetica, Arial, sans-serif">
<rect width="400" height="400" fill="#ffffff"/>
<text x="20" y="28" font-size="15" fill="#111827" text-anchor="start" font-weight="bold">STEP 5 &#183; Build the two halves</text><text x="20" y="46" font-size="10.5" fill="#4b5563" text-anchor="start" font-weight="normal">Two L-shapes. Each locks with one straight slide.</text><line x1="20" y1="58" x2="380" y2="58" stroke="#e5e7eb"/>
<polygon points="217.99,179.12 151.89,217.28 151.89,120.08 217.99,81.92" fill="#e3e9f4" stroke="#111827" stroke-width="0.8" stroke-linejoin="round"/><polygon points="146.90,214.40 151.89,217.28 151.89,120.08 146.90,117.20" fill="#d2dbec" stroke="#111827" stroke-width="0.8" stroke-linejoin="round"/><polygon points="213.00,79.04 217.99,81.92 151.89,120.08 146.90,117.20" fill="#f7f9fd" stroke="#111827" stroke-width="0.8" stroke-linejoin="round"/><polygon points="327.73,242.48 322.74,245.36 322.74,148.16 327.73,145.28" fill="#e3e9f4" stroke="#111827" stroke-width="0.8" stroke-linejoin="round"/><polygon points="219.24,185.60 322.74,245.36 322.74,148.16 219.24,88.40" fill="#d2dbec" stroke="#111827" stroke-width="0.8" stroke-linejoin="round"/><polygon points="224.22,85.52 327.73,145.28 322.74,148.16 219.24,88.40" fill="#f7f9fd" stroke="#111827" stroke-width="0.8" stroke-linejoin="round"/><line x1="285.90" y1="165.20" x2="280.74" y2="162.22" stroke="#1d4ed8" stroke-width="1.6"/><polygon points="274.68,158.72 282.44,159.27 279.04,165.16" fill="#1d4ed8"/><polygon points="239.19,280.64 173.09,318.80 173.09,221.60 239.19,183.44" fill="#e3e9f4" stroke="#111827" stroke-width="0.8" stroke-linejoin="round"/><polygon points="168.11,315.92 173.09,318.80 173.09,221.60 168.11,218.72" fill="#d2dbec" stroke="#111827" stroke-width="0.8" stroke-linejoin="round"/><polygon points="234.20,180.56 239.19,183.44 173.09,221.60 168.11,218.72" fill="#f7f9fd" stroke="#111827" stroke-width="0.8" stroke-linejoin="round"/><polygon points="222.98,271.28 217.99,274.16 217.99,176.96 222.98,174.08" fill="#e3e9f4" stroke="#111827" stroke-width="0.8" stroke-linejoin="round"/><polygon points="130.69,223.76 217.99,274.16 217.99,176.96 130.69,126.56" fill="#d2dbec" stroke="#111827" stroke-width="0.8" stroke-linejoin="round"/><polygon points="135.68,123.68 222.98,174.08 217.99,176.96 130.69,126.56" fill="#f7f9fd" stroke="#111827" stroke-width="0.8" stroke-linejoin="round"/><text x="24" y="350" font-size="9.5" fill="#4b5563" text-anchor="start" font-weight="normal">Half 1: left + front wall, front slides in &#8722;X.</text><text x="24" y="366" font-size="9.5" fill="#4b5563" text-anchor="start" font-weight="normal">Half 2: right + back wall, back slides in +X.</text><text x="20" y="386" font-size="9.5" fill="#9aa0ae" text-anchor="start" font-weight="normal">A press fit goes by hand. If you need a mallet, the kerf is wrong.</text>
</svg>
