<svg xmlns="http://www.w3.org/2000/svg" width="400" height="400" viewBox="0 0 400 400" font-family="Helvetica, Arial, sans-serif">
<rect width="400" height="400" fill="#ffffff"/>
<text x="20" y="28" font-size="15" fill="#111827" text-anchor="start" font-weight="bold">STEP 3 &#183; Bond the 4 wall magnets</text><text x="20" y="46" font-size="10.5" fill="#4b5563" text-anchor="start" font-weight="normal">Two-part epoxy or CA gel. Set them flush with the edge.</text><line x1="20" y1="58" x2="380" y2="58" stroke="#e5e7eb"/>
<polygon points="250.06,309.40 244.17,312.80 244.17,198.05 250.06,194.65" fill="#e3e9f4" stroke="#111827" stroke-width="0.8" stroke-linejoin="round"/><polygon points="121.97,242.25 244.17,312.80 244.17,198.05 121.97,127.50" fill="#d2dbec" stroke="#111827" stroke-width="0.8" stroke-linejoin="round"/><polygon points="127.86,124.10 250.06,194.65 244.17,198.05 121.97,127.50" fill="#f7f9fd" stroke="#111827" stroke-width="0.8" stroke-linejoin="round"/><polygon points="322.20,267.75 316.31,271.15 316.31,156.40 322.20,153.00" fill="#e3e9f4" stroke="#111827" stroke-width="0.8" stroke-linejoin="round"/><polygon points="194.11,200.60 316.31,271.15 316.31,156.40 194.11,85.85" fill="#d2dbec" stroke="#111827" stroke-width="0.8" stroke-linejoin="round"/><polygon points="200.00,82.45 322.20,153.00 316.31,156.40 194.11,85.85" fill="#f7f9fd" stroke="#111827" stroke-width="0.8" stroke-linejoin="round"/><polygon points="205.89,200.60 127.86,245.65 127.86,130.90 205.89,85.85" fill="#e3e9f4" stroke="#111827" stroke-width="0.8" stroke-linejoin="round"/><polygon points="121.97,242.25 127.86,245.65 127.86,130.90 121.97,127.50" fill="#d2dbec" stroke="#111827" stroke-width="0.8" stroke-linejoin="round"/><polygon points="200.00,82.45 205.89,85.85 127.86,130.90 121.97,127.50" fill="#f7f9fd" stroke="#111827" stroke-width="0.8" stroke-linejoin="round"/><polygon points="322.20,267.75 244.17,312.80 244.17,198.05 322.20,153.00" fill="#e3e9f4" stroke="#111827" stroke-width="0.8" stroke-linejoin="round"/><polygon points="238.28,309.40 244.17,312.80 244.17,198.05 238.28,194.65" fill="#d2dbec" stroke="#111827" stroke-width="0.8" stroke-linejoin="round"/><polygon points="316.31,149.60 322.20,153.00 244.17,198.05 238.28,194.65" fill="#f7f9fd" stroke="#111827" stroke-width="0.8" stroke-linejoin="round"/><line x1="245.77" y1="312.80" x2="245.77" y2="300.05" stroke="#1d4ed8" stroke-width="1.5" stroke-linecap="round"/><line x1="242.57" y1="300.05" x2="242.57" y2="287.30" stroke="#1d4ed8" stroke-width="1.5" stroke-linecap="round"/><line x1="245.77" y1="287.30" x2="245.77" y2="274.55" stroke="#1d4ed8" stroke-width="1.5" stroke-linecap="round"/><line x1="242.57" y1="274.55" x2="242.57" y2="261.80" stroke="#1d4ed8" stroke-width="1.5" stroke-linecap="round"/><line x1="245.77" y1="261.80" x2="245.77" y2="249.05" stroke="#1d4ed8" stroke-width="1.5" stroke-linecap="round"/><line x1="242.57" y1="249.05" x2="242.57" y2="236.30" stroke="#1d4ed8" stroke-width="1.5" stroke-linecap="round"/><line x1="245.77" y1="236.30" x2="245.77" y2="223.55" stroke="#1d4ed8" stroke-width="1.5" stroke-linecap="round"/><line x1="242.57" y1="223.55" x2="242.57" y2="210.80" stroke="#1d4ed8" stroke-width="1.5" stroke-linecap="round"/><line x1="245.77" y1="210.80" x2="245.77" y2="198.05" stroke="#1d4ed8" stroke-width="1.5" stroke-linecap="round"/><line x1="323.80" y1="267.75" x2="323.80" y2="255.00" stroke="#1d4ed8" stroke-width="1.5" stroke-linecap="round"/><line x1="320.60" y1="255.00" x2="320.60" y2="242.25" stroke="#1d4ed8" stroke-width="1.5" stroke-linecap="round"/><line x1="323.80" y1="242.25" x2="323.80" y2="229.50" stroke="#1d4ed8" stroke-width="1.5" stroke-linecap="round"/><line x1="320.60" y1="229.50" x2="320.60" y2="216.75" stroke="#1d4ed8" stroke-width="1.5" stroke-linecap="round"/><line x1="323.80" y1="216.75" x2="323.80" y2="204.00" stroke="#1d4ed8" stroke-width="1.5" stroke-linecap="round"/><line x1="320.60" y1="204.00" x2="320.60" y2="191.25" stroke="#1d4ed8" stroke-width="1.5" stroke-linecap="round"/><line x1="323.80" y1="191.25" x2="323.80" y2="178.50" stroke="#1d4ed8" stroke-width="1.5" stroke-linecap="round"/><line x1="320.60" y1="178.50" x2="320.60" y2="165.75" stroke="#1d4ed8" stroke-width="1.5" stroke-linecap="round"/><line x1="323.80" y1="165.75" x2="323.80" y2="153.00" stroke="#1d4ed8" stroke-width="1.5" stroke-linecap="round"/><line x1="123.57" y1="242.25" x2="123.57" y2="229.50" stroke="#1d4ed8" stroke-width="1.5" stroke-linecap="round"/><line x1="120.37" y1="229.50" x2="120.37" y2="216.75" stroke="#1d4ed8" stroke-width="1.5" stroke-linecap="round"/><line x1="123.57" y1="216.75" x2="123.57" y2="204.00" stroke="#1d4ed8" stroke-width="1.5" stroke-linecap="round"/><line x1="120.37" y1="204.00" x2="120.37" y2="191.25" stroke="#1d4ed8" stroke-width="1.5" stroke-linecap="round"/><line x1="123.57" y1="191.25" x2="123.57" y2="178.50" stroke="#1d4ed8" stroke-width="1.5" stroke-linecap="round"/><line x1="120.37" y1="178.50" x2="120.37" y2="165.75" stroke="#1d4ed8" stroke-width="1.5" stroke-linecap="round"/><line x1="123.57" y1="165.75" x2="123.57" y2="153.00" stroke="#1d4ed8" stroke-width="1.5" stroke-linecap="round"/><line x1="120.37" y1="153.00" x2="120.37" y2="140.25" stroke="#1d4ed8" stroke-width="1.5" stroke-linecap="round"/><line x1="123.57" y1="140.25" x2="123.57" y2="127.50" stroke="#1d4ed8" stroke-width="1.5" stroke-linecap="round"/><circle cx="261.1" cy="121.1" r="3.2" fill="#b91c1c" stroke="#7f1d1d" stroke-width="0.9"/><circle cx="183.1" cy="166.2" r="3.2" fill="#b91c1c" stroke="#7f1d1d" stroke-width="0.9"/><circle cx="161.0" cy="108.4" r="3.2" fill="#b91c1c" stroke="#7f1d1d" stroke-width="0.9"/><circle cx="283.2" cy="178.9" r="3.2" fill="#b91c1c" stroke="#7f1d1d" stroke-width="0.9"/><text x="24" y="326" font-size="9.5" fill="#4b5563" text-anchor="start" font-weight="normal">Four magnets, one centred in the top edge of each wall.</text><text x="24" y="342" font-size="9.5" fill="#4b5563" text-anchor="start" font-weight="normal">Epoxy them flush. Proud magnets stop the lid seating.</text><text x="24" y="358" font-size="9.5" fill="#15803d" text-anchor="start" font-weight="normal">Nothing is magnetic below the rim - the base is keyed.</text><text x="20" y="386" font-size="9.5" fill="#9aa0ae" text-anchor="start" font-weight="normal">Walls first, then let each lid magnet find its own way round.</text>
</svg>
