<svg xmlns="http://www.w3.org/2000/svg" width="1010" height="500" viewBox="0 0 1010 500" font-family="Helvetica, Arial, sans-serif">
<rect width="1010" height="500" fill="#ffffff"/>
<text x="20" y="28" font-size="15" fill="#111827" text-anchor="start" font-weight="bold">The whole case, laid out flat</text><text x="20" y="46" font-size="10.5" fill="#4b5563" text-anchor="start" font-weight="normal">Four side sheets, one top sheet, one bottom sheet.</text><line x1="20" y1="58" x2="990" y2="58" stroke="#e5e7eb"/>
<rect x="40.00" y="104.00" width="166.00" height="152.00" fill="#f7f9fd" stroke="#111827" stroke-width="1.2"/><rect x="40.00" y="104.00" width="8.00" height="8.00" fill="#ffffff" stroke="#1d4ed8" stroke-width="0.8"/><rect x="40.00" y="120.00" width="8.00" height="8.00" fill="#ffffff" stroke="#1d4ed8" stroke-width="0.8"/><rect x="40.00" y="128.00" width="8.00" height="8.00" fill="#ffffff" stroke="#1d4ed8" stroke-width="0.8"/><rect x="40.00" y="144.00" width="8.00" height="8.00" fill="#ffffff" stroke="#1d4ed8" stroke-width="0.8"/><rect x="40.00" y="152.00" width="8.00" height="8.00" fill="#ffffff" stroke="#1d4ed8" stroke-width="0.8"/><rect x="40.00" y="168.00" width="8.00" height="8.00" fill="#ffffff" stroke="#1d4ed8" stroke-width="0.8"/><rect x="40.00" y="176.00" width="8.00" height="8.00" fill="#ffffff" stroke="#1d4ed8" stroke-width="0.8"/><rect x="40.00" y="192.00" width="8.00" height="8.00" fill="#ffffff" stroke="#1d4ed8" stroke-width="0.8"/><rect x="40.00" y="200.00" width="8.00" height="8.00" fill="#ffffff" stroke="#1d4ed8" stroke-width="0.8"/><rect x="40.00" y="216.00" width="8.00" height="8.00" fill="#ffffff" stroke="#1d4ed8" stroke-width="0.8"/><rect x="40.00" y="224.00" width="8.00" height="8.00" fill="#ffffff" stroke="#1d4ed8" stroke-width="0.8"/><rect x="40.00" y="240.00" width="8.00" height="8.00" fill="#ffffff" stroke="#1d4ed8" stroke-width="0.8"/><rect x="40.00" y="248.00" width="8.00" height="8.00" fill="#ffffff" stroke="#1d4ed8" stroke-width="0.8"/><rect x="198.00" y="104.00" width="8.00" height="8.00" fill="#ffffff" stroke="#1d4ed8" stroke-width="0.8"/><rect x="198.00" y="120.00" width="8.00" height="8.00" fill="#ffffff" stroke="#1d4ed8" stroke-width="0.8"/><rect x="198.00" y="128.00" width="8.00" height="8.00" fill="#ffffff" stroke="#1d4ed8" stroke-width="0.8"/><rect x="198.00" y="144.00" width="8.00" height="8.00" fill="#ffffff" stroke="#1d4ed8" stroke-width="0.8"/><rect x="198.00" y="152.00" width="8.00" height="8.00" fill="#ffffff" stroke="#1d4ed8" stroke-width="0.8"/><rect x="198.00" y="168.00" width="8.00" height="8.00" fill="#ffffff" stroke="#1d4ed8" stroke-width="0.8"/><rect x="198.00" y="176.00" width="8.00" height="8.00" fill="#ffffff" stroke="#1d4ed8" stroke-width="0.8"/><rect x="198.00" y="192.00" width="8.00" height="8.00" fill="#ffffff" stroke="#1d4ed8" stroke-width="0.8"/><rect x="198.00" y="200.00" width="8.00" height="8.00" fill="#ffffff" stroke="#1d4ed8" stroke-width="0.8"/><rect x="198.00" y="216.00" width="8.00" height="8.00" fill="#ffffff" stroke="#1d4ed8" stroke-width="0.8"/><rect x="198.00" y="224.00" width="8.00" height="8.00" fill="#ffffff" stroke="#1d4ed8" stroke-width="0.8"/><rect x="198.00" y="240.00" width="8.00" height="8.00" fill="#ffffff" stroke="#1d4ed8" stroke-width="0.8"/><rect x="198.00" y="248.00" width="8.00" height="8.00" fill="#ffffff" stroke="#1d4ed8" stroke-width="0.8"/><text x="40" y="94" font-size="11.5" fill="#111827" text-anchor="start" font-weight="bold">Front wall</text><text x="40" y="274.0" font-size="9.5" fill="#4b5563" text-anchor="start" font-weight="normal">corner fingers, both ends</text><rect x="236.00" y="104.00" width="166.00" height="152.00" fill="#f7f9fd" stroke="#111827" stroke-width="1.2"/><rect x="236.00" y="104.00" width="8.00" height="8.00" fill="#ffffff" stroke="#1d4ed8" stroke-width="0.8"/><rect x="236.00" y="120.00" width="8.00" height="8.00" fill="#ffffff" stroke="#1d4ed8" stroke-width="0.8"/><rect x="236.00" y="128.00" width="8.00" height="8.00" fill="#ffffff" stroke="#1d4ed8" stroke-width="0.8"/><rect x="236.00" y="144.00" width="8.00" height="8.00" fill="#ffffff" stroke="#1d4ed8" stroke-width="0.8"/><rect x="236.00" y="152.00" width="8.00" height="8.00" fill="#ffffff" stroke="#1d4ed8" stroke-width="0.8"/><rect x="236.00" y="168.00" width="8.00" height="8.00" fill="#ffffff" stroke="#1d4ed8" stroke-width="0.8"/><rect x="236.00" y="176.00" width="8.00" height="8.00" fill="#ffffff" stroke="#1d4ed8" stroke-width="0.8"/><rect x="236.00" y="192.00" width="8.00" height="8.00" fill="#ffffff" stroke="#1d4ed8" stroke-width="0.8"/><rect x="236.00" y="200.00" width="8.00" height="8.00" fill="#ffffff" stroke="#1d4ed8" stroke-width="0.8"/><rect x="236.00" y="216.00" width="8.00" height="8.00" fill="#ffffff" stroke="#1d4ed8" stroke-width="0.8"/><rect x="236.00" y="224.00" width="8.00" height="8.00" fill="#ffffff" stroke="#1d4ed8" stroke-width="0.8"/><rect x="236.00" y="240.00" width="8.00" height="8.00" fill="#ffffff" stroke="#1d4ed8" stroke-width="0.8"/><rect x="236.00" y="248.00" width="8.00" height="8.00" fill="#ffffff" stroke="#1d4ed8" stroke-width="0.8"/><rect x="394.00" y="104.00" width="8.00" height="8.00" fill="#ffffff" stroke="#1d4ed8" stroke-width="0.8"/><rect x="394.00" y="120.00" width="8.00" height="8.00" fill="#ffffff" stroke="#1d4ed8" stroke-width="0.8"/><rect x="394.00" y="128.00" width="8.00" height="8.00" fill="#ffffff" stroke="#1d4ed8" stroke-width="0.8"/><rect x="394.00" y="144.00" width="8.00" height="8.00" fill="#ffffff" stroke="#1d4ed8" stroke-width="0.8"/><rect x="394.00" y="152.00" width="8.00" height="8.00" fill="#ffffff" stroke="#1d4ed8" stroke-width="0.8"/><rect x="394.00" y="168.00" width="8.00" height="8.00" fill="#ffffff" stroke="#1d4ed8" stroke-width="0.8"/><rect x="394.00" y="176.00" width="8.00" height="8.00" fill="#ffffff" stroke="#1d4ed8" stroke-width="0.8"/><rect x="394.00" y="192.00" width="8.00" height="8.00" fill="#ffffff" stroke="#1d4ed8" stroke-width="0.8"/><rect x="394.00" y="200.00" width="8.00" height="8.00" fill="#ffffff" stroke="#1d4ed8" stroke-width="0.8"/><rect x="394.00" y="216.00" width="8.00" height="8.00" fill="#ffffff" stroke="#1d4ed8" stroke-width="0.8"/><rect x="394.00" y="224.00" width="8.00" height="8.00" fill="#ffffff" stroke="#1d4ed8" stroke-width="0.8"/><rect x="394.00" y="240.00" width="8.00" height="8.00" fill="#ffffff" stroke="#1d4ed8" stroke-width="0.8"/><rect x="394.00" y="248.00" width="8.00" height="8.00" fill="#ffffff" stroke="#1d4ed8" stroke-width="0.8"/><text x="236" y="94" font-size="11.5" fill="#111827" text-anchor="start" font-weight="bold">Back wall</text><text x="236" y="274.0" font-size="9.5" fill="#4b5563" text-anchor="start" font-weight="normal">corner fingers, both ends</text><rect x="432.00" y="104.00" width="106.00" height="152.00" fill="#f7f9fd" stroke="#111827" stroke-width="1.2"/><rect x="432.00" y="104.00" width="8.00" height="8.00" fill="#ffffff" stroke="#1d4ed8" stroke-width="0.8"/><rect x="432.00" y="120.00" width="8.00" height="8.00" fill="#ffffff" stroke="#1d4ed8" stroke-width="0.8"/><rect x="432.00" y="128.00" width="8.00" height="8.00" fill="#ffffff" stroke="#1d4ed8" stroke-width="0.8"/><rect x="432.00" y="144.00" width="8.00" height="8.00" fill="#ffffff" stroke="#1d4ed8" stroke-width="0.8"/><rect x="432.00" y="152.00" width="8.00" height="8.00" fill="#ffffff" stroke="#1d4ed8" stroke-width="0.8"/><rect x="432.00" y="168.00" width="8.00" height="8.00" fill="#ffffff" stroke="#1d4ed8" stroke-width="0.8"/><rect x="432.00" y="176.00" width="8.00" height="8.00" fill="#ffffff" stroke="#1d4ed8" stroke-width="0.8"/><rect x="432.00" y="192.00" width="8.00" height="8.00" fill="#ffffff" stroke="#1d4ed8" stroke-width="0.8"/><rect x="432.00" y="200.00" width="8.00" height="8.00" fill="#ffffff" stroke="#1d4ed8" stroke-width="0.8"/><rect x="432.00" y="216.00" width="8.00" height="8.00" fill="#ffffff" stroke="#1d4ed8" stroke-width="0.8"/><rect x="432.00" y="224.00" width="8.00" height="8.00" fill="#ffffff" stroke="#1d4ed8" stroke-width="0.8"/><rect x="432.00" y="240.00" width="8.00" height="8.00" fill="#ffffff" stroke="#1d4ed8" stroke-width="0.8"/><rect x="432.00" y="248.00" width="8.00" height="8.00" fill="#ffffff" stroke="#1d4ed8" stroke-width="0.8"/><rect x="530.00" y="104.00" width="8.00" height="8.00" fill="#ffffff" stroke="#1d4ed8" stroke-width="0.8"/><rect x="530.00" y="120.00" width="8.00" height="8.00" fill="#ffffff" stroke="#1d4ed8" stroke-width="0.8"/><rect x="530.00" y="128.00" width="8.00" height="8.00" fill="#ffffff" stroke="#1d4ed8" stroke-width="0.8"/><rect x="530.00" y="144.00" width="8.00" height="8.00" fill="#ffffff" stroke="#1d4ed8" stroke-width="0.8"/><rect x="530.00" y="152.00" width="8.00" height="8.00" fill="#ffffff" stroke="#1d4ed8" stroke-width="0.8"/><rect x="530.00" y="168.00" width="8.00" height="8.00" fill="#ffffff" stroke="#1d4ed8" stroke-width="0.8"/><rect x="530.00" y="176.00" width="8.00" height="8.00" fill="#ffffff" stroke="#1d4ed8" stroke-width="0.8"/><rect x="530.00" y="192.00" width="8.00" height="8.00" fill="#ffffff" stroke="#1d4ed8" stroke-width="0.8"/><rect x="530.00" y="200.00" width="8.00" height="8.00" fill="#ffffff" stroke="#1d4ed8" stroke-width="0.8"/><rect x="530.00" y="216.00" width="8.00" height="8.00" fill="#ffffff" stroke="#1d4ed8" stroke-width="0.8"/><rect x="530.00" y="224.00" width="8.00" height="8.00" fill="#ffffff" stroke="#1d4ed8" stroke-width="0.8"/><rect x="530.00" y="240.00" width="8.00" height="8.00" fill="#ffffff" stroke="#1d4ed8" stroke-width="0.8"/><rect x="530.00" y="248.00" width="8.00" height="8.00" fill="#ffffff" stroke="#1d4ed8" stroke-width="0.8"/><text x="432" y="94" font-size="11.5" fill="#111827" text-anchor="start" font-weight="bold">Left wall</text><text x="432" y="274.0" font-size="9.5" fill="#4b5563" text-anchor="start" font-weight="normal">corner fingers, both ends</text><rect x="558.00" y="104.00" width="106.00" height="152.00" fill="#f7f9fd" stroke="#111827" stroke-width="1.2"/><rect x="558.00" y="104.00" width="8.00" height="8.00" fill="#ffffff" stroke="#1d4ed8" stroke-width="0.8"/><rect x="558.00" y="120.00" width="8.00" height="8.00" fill="#ffffff" stroke="#1d4ed8" stroke-width="0.8"/><rect x="558.00" y="128.00" width="8.00" height="8.00" fill="#ffffff" stroke="#1d4ed8" stroke-width="0.8"/><rect x="558.00" y="144.00" width="8.00" height="8.00" fill="#ffffff" stroke="#1d4ed8" stroke-width="0.8"/><rect x="558.00" y="152.00" width="8.00" height="8.00" fill="#ffffff" stroke="#1d4ed8" stroke-width="0.8"/><rect x="558.00" y="168.00" width="8.00" height="8.00" fill="#ffffff" stroke="#1d4ed8" stroke-width="0.8"/><rect x="558.00" y="176.00" width="8.00" height="8.00" fill="#ffffff" stroke="#1d4ed8" stroke-width="0.8"/><rect x="558.00" y="192.00" width="8.00" height="8.00" fill="#ffffff" stroke="#1d4ed8" stroke-width="0.8"/><rect x="558.00" y="200.00" width="8.00" height="8.00" fill="#ffffff" stroke="#1d4ed8" stroke-width="0.8"/><rect x="558.00" y="216.00" width="8.00" height="8.00" fill="#ffffff" stroke="#1d4ed8" stroke-width="0.8"/><rect x="558.00" y="224.00" width="8.00" height="8.00" fill="#ffffff" stroke="#1d4ed8" stroke-width="0.8"/><rect x="558.00" y="240.00" width="8.00" height="8.00" fill="#ffffff" stroke="#1d4ed8" stroke-width="0.8"/><rect x="558.00" y="248.00" width="8.00" height="8.00" fill="#ffffff" stroke="#1d4ed8" stroke-width="0.8"/><rect x="656.00" y="104.00" width="8.00" height="8.00" fill="#ffffff" stroke="#1d4ed8" stroke-width="0.8"/><rect x="656.00" y="120.00" width="8.00" height="8.00" fill="#ffffff" stroke="#1d4ed8" stroke-width="0.8"/><rect x="656.00" y="128.00" width="8.00" height="8.00" fill="#ffffff" stroke="#1d4ed8" stroke-width="0.8"/><rect x="656.00" y="144.00" width="8.00" height="8.00" fill="#ffffff" stroke="#1d4ed8" stroke-width="0.8"/><rect x="656.00" y="152.00" width="8.00" height="8.00" fill="#ffffff" stroke="#1d4ed8" stroke-width="0.8"/><rect x="656.00" y="168.00" width="8.00" height="8.00" fill="#ffffff" stroke="#1d4ed8" stroke-width="0.8"/><rect x="656.00" y="176.00" width="8.00" height="8.00" fill="#ffffff" stroke="#1d4ed8" stroke-width="0.8"/><rect x="656.00" y="192.00" width="8.00" height="8.00" fill="#ffffff" stroke="#1d4ed8" stroke-width="0.8"/><rect x="656.00" y="200.00" width="8.00" height="8.00" fill="#ffffff" stroke="#1d4ed8" stroke-width="0.8"/><rect x="656.00" y="216.00" width="8.00" height="8.00" fill="#ffffff" stroke="#1d4ed8" stroke-width="0.8"/><rect x="656.00" y="224.00" width="8.00" height="8.00" fill="#ffffff" stroke="#1d4ed8" stroke-width="0.8"/><rect x="656.00" y="240.00" width="8.00" height="8.00" fill="#ffffff" stroke="#1d4ed8" stroke-width="0.8"/><rect x="656.00" y="248.00" width="8.00" height="8.00" fill="#ffffff" stroke="#1d4ed8" stroke-width="0.8"/><text x="558" y="94" font-size="11.5" fill="#111827" text-anchor="start" font-weight="bold">Right wall</text><text x="558" y="274.0" font-size="9.5" fill="#4b5563" text-anchor="start" font-weight="normal">corner fingers, both ends</text><rect x="40.00" y="320.00" width="166.00" height="106.00" fill="#f7f9fd" stroke="#111827" stroke-width="1.2"/><circle cx="123.0" cy="328.0" r="4.5" fill="#fca5a5" stroke="#991b1b" stroke-width="1"/><circle cx="123.0" cy="418.0" r="4.5" fill="#fca5a5" stroke="#991b1b" stroke-width="1"/><circle cx="48.0" cy="373.0" r="4.5" fill="#fca5a5" stroke="#991b1b" stroke-width="1"/><circle cx="198.0" cy="373.0" r="4.5" fill="#fca5a5" stroke="#991b1b" stroke-width="1"/><text x="40" y="310" font-size="11.5" fill="#111827" text-anchor="start" font-weight="bold">Lid plate</text><text x="40" y="444.0" font-size="9.5" fill="#4b5563" text-anchor="start" font-weight="normal">4 magnet pockets. Otherwise plain.</text><rect x="268.00" y="328.00" width="150.00" height="90.00" fill="#f7f9fd" stroke="#111827" stroke-width="1.2"/><rect x="260.00" y="320.00" width="8.00" height="8.00" fill="#fca5a5" stroke="#991b1b" stroke-width="1.1"/><rect x="418.00" y="320.00" width="8.00" height="8.00" fill="#fca5a5" stroke="#991b1b" stroke-width="1.1"/><rect x="260.00" y="418.00" width="8.00" height="8.00" fill="#fca5a5" stroke="#991b1b" stroke-width="1.1"/><rect x="418.00" y="418.00" width="8.00" height="8.00" fill="#fca5a5" stroke="#991b1b" stroke-width="1.1"/><text x="260" y="310" font-size="11.5" fill="#111827" text-anchor="start" font-weight="bold">Base plate</text><text x="260" y="444.0" font-size="9.5" fill="#4b5563" text-anchor="start" font-weight="normal">4 corner tabs (red). Otherwise plain.</text><text x="660" y="128" font-size="15" fill="#111827" text-anchor="start" font-weight="bold">Six sheets. Nothing else.</text><text x="660" y="154" font-size="10.5" fill="#4b5563" text-anchor="start" font-weight="normal">No extra acrylic parts, no brackets, no pins.</text><text x="660" y="184" font-size="11.5" fill="#111827" text-anchor="start" font-weight="bold">4 × side sheets</text><text x="660" y="200" font-size="10" fill="#4b5563" text-anchor="start" font-weight="normal">the walls, joined at the corners</text><text x="660" y="230" font-size="11.5" fill="#111827" text-anchor="start" font-weight="bold">1 × top sheet</text><text x="660" y="246" font-size="10" fill="#4b5563" text-anchor="start" font-weight="normal">the lid, held by magnets</text><text x="660" y="276" font-size="11.5" fill="#111827" text-anchor="start" font-weight="bold">1 × bottom sheet</text><text x="660" y="292" font-size="10" fill="#4b5563" text-anchor="start" font-weight="normal">the floor, held by geometry</text><text x="660" y="332" font-size="10.5" fill="#15803d" text-anchor="start" font-weight="normal">The joint shapes are cut INTO these</text><text x="660" y="348" font-size="10.5" fill="#15803d" text-anchor="start" font-weight="normal">sheets — they are not extra pieces.</text><text x="660" y="374" font-size="10" fill="#4b5563" text-anchor="start" font-weight="normal">Non-acrylic: 8 magnets, 6 foam pads,</text><text x="660" y="390" font-size="10" fill="#4b5563" text-anchor="start" font-weight="normal">and adhesive for the foam.</text><text x="40" y="476" font-size="10" fill="#9aa0ae" text-anchor="start" font-weight="normal">Dimensions on the following pages. Everything here is cut from one sheet of the same thickness.</text><text x="20" y="486" font-size="9.5" fill="#9aa0ae" text-anchor="start" font-weight="normal">The finger notches shown are simplified — see the cut list for the real profile.</text>
</svg>
