<svg xmlns="http://www.w3.org/2000/svg" width="400" height="520" viewBox="0 0 400 520" font-family="Helvetica, Arial, sans-serif">
<rect width="400" height="520" fill="#ffffff"/>
<text x="20" y="30" font-size="16" fill="#111827" text-anchor="start" font-weight="bold">C &#183; Exposed tab &amp; slot</text><text x="20" y="48" font-size="11" fill="#4b5563" text-anchor="start" font-weight="normal">Pure laser &#183; visible tabs &#183; easiest to assemble</text><line x1="20" y1="60" x2="380" y2="60" stroke="#e5e7eb"/>
<polygon points="301.97,281.62 237.02,319.12 237.02,315.38 301.97,277.88" fill="#cfd8e8" stroke="#111827" stroke-width="0.7" stroke-linejoin="round"/><polygon points="137.00,261.38 237.02,319.12 237.02,315.38 137.00,257.62" fill="#bcc7db" stroke="#111827" stroke-width="0.7" stroke-linejoin="round"/><polygon points="201.95,220.12 301.97,277.88 237.02,315.38 137.00,257.62" fill="#eef2f9" stroke="#111827" stroke-width="0.7" stroke-linejoin="round"/><polygon points="300.03,279.00 238.97,314.25 238.97,216.75 300.03,181.50" fill="#e3e9f4" stroke="#111827" stroke-width="0.7" stroke-linejoin="round"/><polygon points="138.95,256.50 238.97,314.25 238.97,216.75 138.95,159.00" fill="#d2dbec" stroke="#111827" stroke-width="0.7" stroke-linejoin="round"/><polygon points="200.00,123.75 300.03,181.50 238.97,216.75 138.95,159.00" fill="#f7f9fd" stroke="#111827" stroke-width="0.7" stroke-linejoin="round"/><polygon points="307.17,198.00 238.97,237.38 238.97,217.12 307.17,177.75" fill="#dde5f2" stroke="#111827" stroke-width="0.7" stroke-linejoin="round"/><polygon points="131.80,175.50 238.97,237.38 238.97,217.12 131.80,155.25" fill="#cbd6ea" stroke="#111827" stroke-width="0.7" stroke-linejoin="round"/><polygon points="200.00,115.88 307.17,177.75 238.97,217.12 131.80,155.25" fill="#f7f9fd" stroke="#111827" stroke-width="0.7" stroke-linejoin="round"/><polygon points="205.20,219.75 203.25,220.88 203.25,214.88 205.20,213.75" fill="#b91c1c" stroke="#111827" stroke-width="0.7" stroke-linejoin="round"/><polygon points="200.00,219.00 203.25,220.88 203.25,214.88 200.00,213.00" fill="#991b1b" stroke="#111827" stroke-width="0.7" stroke-linejoin="round"/><polygon points="201.95,211.88 205.20,213.75 203.25,214.88 200.00,213.00" fill="#fca5a5" stroke="#111827" stroke-width="0.7" stroke-linejoin="round"/><polygon points="301.97,275.62 300.03,276.75 300.03,270.75 301.97,269.62" fill="#b91c1c" stroke="#111827" stroke-width="0.7" stroke-linejoin="round"/><polygon points="296.78,274.88 300.03,276.75 300.03,270.75 296.78,268.88" fill="#991b1b" stroke="#111827" stroke-width="0.7" stroke-linejoin="round"/><polygon points="298.73,267.75 301.97,269.62 300.03,270.75 296.78,268.88" fill="#fca5a5" stroke="#111827" stroke-width="0.7" stroke-linejoin="round"/><polygon points="205.20,207.75 203.25,208.88 203.25,202.88 205.20,201.75" fill="#b91c1c" stroke="#111827" stroke-width="0.7" stroke-linejoin="round"/><polygon points="200.00,207.00 203.25,208.88 203.25,202.88 200.00,201.00" fill="#991b1b" stroke="#111827" stroke-width="0.7" stroke-linejoin="round"/><polygon points="201.95,199.88 205.20,201.75 203.25,202.88 200.00,201.00" fill="#fca5a5" stroke="#111827" stroke-width="0.7" stroke-linejoin="round"/><polygon points="301.97,263.62 300.03,264.75 300.03,258.75 301.97,257.62" fill="#b91c1c" stroke="#111827" stroke-width="0.7" stroke-linejoin="round"/><polygon points="296.78,262.88 300.03,264.75 300.03,258.75 296.78,256.88" fill="#991b1b" stroke="#111827" stroke-width="0.7" stroke-linejoin="round"/><polygon points="298.73,255.75 301.97,257.62 300.03,258.75 296.78,256.88" fill="#fca5a5" stroke="#111827" stroke-width="0.7" stroke-linejoin="round"/><polygon points="205.20,195.75 203.25,196.88 203.25,190.88 205.20,189.75" fill="#b91c1c" stroke="#111827" stroke-width="0.7" stroke-linejoin="round"/><polygon points="200.00,195.00 203.25,196.88 203.25,190.88 200.00,189.00" fill="#991b1b" stroke="#111827" stroke-width="0.7" stroke-linejoin="round"/><polygon points="201.95,187.88 205.20,189.75 203.25,190.88 200.00,189.00" fill="#fca5a5" stroke="#111827" stroke-width="0.7" stroke-linejoin="round"/><polygon points="301.97,251.62 300.03,252.75 300.03,246.75 301.97,245.62" fill="#b91c1c" stroke="#111827" stroke-width="0.7" stroke-linejoin="round"/><polygon points="296.78,250.88 300.03,252.75 300.03,246.75 296.78,244.88" fill="#991b1b" stroke="#111827" stroke-width="0.7" stroke-linejoin="round"/><polygon points="298.73,243.75 301.97,245.62 300.03,246.75 296.78,244.88" fill="#fca5a5" stroke="#111827" stroke-width="0.7" stroke-linejoin="round"/><polygon points="205.20,183.75 203.25,184.88 203.25,178.88 205.20,177.75" fill="#b91c1c" stroke="#111827" stroke-width="0.7" stroke-linejoin="round"/><polygon points="200.00,183.00 203.25,184.88 203.25,178.88 200.00,177.00" fill="#991b1b" stroke="#111827" stroke-width="0.7" stroke-linejoin="round"/><polygon points="201.95,175.88 205.20,177.75 203.25,178.88 200.00,177.00" fill="#fca5a5" stroke="#111827" stroke-width="0.7" stroke-linejoin="round"/><polygon points="301.97,239.62 300.03,240.75 300.03,234.75 301.97,233.62" fill="#b91c1c" stroke="#111827" stroke-width="0.7" stroke-linejoin="round"/><polygon points="296.78,238.88 300.03,240.75 300.03,234.75 296.78,232.88" fill="#991b1b" stroke="#111827" stroke-width="0.7" stroke-linejoin="round"/><polygon points="298.73,231.75 301.97,233.62 300.03,234.75 296.78,232.88" fill="#fca5a5" stroke="#111827" stroke-width="0.7" stroke-linejoin="round"/><line x1="197.6" y1="195.8" x2="34.0" y2="306.0" stroke="#b91c1c" stroke-width="0.8" stroke-dasharray="3 2"/><text x="34" y="302" font-size="10" fill="#b91c1c" text-anchor="start" font-weight="normal">tabs pass through,<br/>stand proud 3 mm</text><rect x="60.00" y="420.00" width="70.40" height="16.00" fill="#fee2e2" stroke="#b91c1c" stroke-width="1.0"/><rect x="60.00" y="436.00" width="16.00" height="54.40" fill="#dbeafe" stroke="#1d4ed8" stroke-width="1.0"/><rect x="60.00" y="410.40" width="16.00" height="25.60" fill="#fca5a5" stroke="#991b1b" stroke-width="1.0"/><rect x="60.00" y="420.00" width="70.40" height="70.40" fill="none" stroke="#9aa0ae" stroke-width="0.8" stroke-dasharray="4 3"/><line x1="60" y1="407.2" x2="60" y2="490.4" stroke="#9aa0ae" stroke-width="0.8" stroke-dasharray="4 3"/><text x="69.6" y="429.6" font-size="9" fill="#991b1b" text-anchor="start" font-weight="normal">tab</text><text x="108.0" y="429.6" font-size="9" fill="#b91c1c" text-anchor="start" font-weight="normal">front wall</text><text x="55" y="480" font-size="9.5" fill="#4b5563" text-anchor="start" font-weight="normal">Section C&#8211;C: the tab is 8 mm long, so it clears</text><text x="55" y="493" font-size="9.5" fill="#4b5563" text-anchor="start" font-weight="normal">the 5 mm wall and shows 3 mm on the outside. Big tabs</text><text x="55" y="506" font-size="9.5" fill="#4b5563" text-anchor="start" font-weight="normal">make this the most forgiving variant to cut.</text><text x="69.6" y="461.6" font-size="9" fill="#1d4ed8" text-anchor="start" font-weight="normal">left wall</text>
</svg>
